<svg width="83" height="33" viewBox="0 0 83 33" fill="none" xmlns="http://www.w3.org/2000/svg">
<path d="M0.792267 25V24.1386H2.14591L2.39203 23.8925V9.61767L2.14591 9.37155H0.792267V8.51014H12.6305L13.5165 12.448L12.7043 12.6941C12.3106 11.8245 11.8347 11.1518 11.2769 10.676C10.719 10.2001 10.0955 9.86378 9.40637 9.66689C8.73365 9.46999 8.00351 9.37155 7.21593 9.37155H6.45297L6.20685 9.61767V17.6165L5.09932 16.509H8.00351C8.70904 16.509 9.33254 16.271 9.874 15.7952C10.4319 15.303 10.7108 14.6385 10.7108 13.8017H11.5722V20.0777H10.7108C10.7108 19.2409 10.4319 18.5845 9.874 18.1087C9.33254 17.6165 8.70904 17.3704 8.00351 17.3704H5.09932L6.20685 16.2628V23.8925L6.45297 24.1386H8.4219V25H0.792267Z" fill="black"/>
<path d="M22.989 24.82C21.8077 24.82 20.7658 24.6231 19.8634 24.2293C18.9773 23.8355 18.2226 23.2694 17.5991 22.5311C16.992 21.7927 16.5326 20.9149 16.2208 19.8976C15.9091 18.8639 15.7532 17.7072 15.7532 16.4274C15.7532 14.5569 16.0649 12.9981 16.6884 11.7511C17.3119 10.4877 18.1733 9.53606 19.2727 8.89616C20.372 8.25625 21.619 7.9363 23.0137 7.9363C24.113 7.9363 25.1056 8.12499 25.9917 8.50237C26.8777 8.87975 27.6325 9.43762 28.256 10.176C28.8959 10.9143 29.3881 11.8168 29.7327 12.8833C30.0772 13.9334 30.2495 15.1311 30.2495 16.4766C30.2495 17.74 30.0854 18.8885 29.7573 19.9222C29.4455 20.9395 28.9779 21.8173 28.3544 22.5557C27.7473 23.2776 26.9925 23.8355 26.0901 24.2293C25.2041 24.6231 24.1704 24.82 22.989 24.82ZM23.0137 22.8756C24.0638 22.8756 24.9498 22.6295 25.6717 22.1373C26.4101 21.6286 26.9679 20.9067 27.3453 19.9714C27.7391 19.0198 27.936 17.8712 27.936 16.5258C27.936 15.1311 27.7391 13.9498 27.3453 12.9817C26.9515 11.9972 26.3855 11.2425 25.6471 10.7174C24.9088 10.1924 24.0145 9.92985 22.9644 9.92985C21.9636 9.92985 21.0939 10.1842 20.3556 10.6928C19.6172 11.2015 19.0512 11.9398 18.6574 12.9079C18.2636 13.8759 18.0667 15.0655 18.0667 16.4766C18.0667 17.4939 18.1733 18.4045 18.3866 19.2085C18.6164 19.9961 18.9363 20.6688 19.3465 21.2266C19.7731 21.7681 20.29 22.1783 20.897 22.4572C21.5205 22.7362 22.2261 22.8756 23.0137 22.8756Z" fill="black"/>
<path d="M51.1033 21.9145L49.4544 22.259V7.5412H55.0166V26H47.83L37.9115 11.2822L39.5358 10.9376V26H33.9982V7.5412H41.4063L51.1033 21.9145Z" fill="black"/>
<path d="M60.1432 8.73296H57.3128V6.27178H65.6808V8.73296H62.8505V23.5H60.1432V8.73296Z" fill="black"/>
<path d="M79.6824 11.6608C79.5675 11.6608 79.4691 11.628 79.387 11.5624C79.3214 11.4803 79.2886 11.3983 79.2886 11.3162C79.2886 11.2342 79.3296 11.1194 79.4117 10.9717C79.4937 10.824 79.5347 10.6845 79.5347 10.5533C79.5347 10.1759 79.3378 9.90517 78.944 9.74109C78.5667 9.56061 78.1729 9.47036 77.7627 9.47036C76.5485 9.47036 75.2769 9.88056 73.9479 10.701C72.6352 11.5213 71.8641 12.5058 71.6344 13.6544C71.7164 14.3435 72.0528 14.9916 72.6434 15.5987C73.2505 16.1894 73.9479 16.7062 74.7354 17.1492C75.523 17.5758 76.3024 18.0106 77.0735 18.4536C77.8447 18.8967 78.4928 19.4217 79.0179 20.0288C79.5429 20.6359 79.8054 21.2594 79.8054 21.8993C79.8054 22.5228 79.5757 23.1381 79.1163 23.7452C78.6569 24.3359 78.1975 24.8363 77.7381 25.2465C77.2951 25.6567 77.0735 25.8782 77.0735 25.911C77.0735 25.9274 77.0982 25.9356 77.1474 25.9356C78.1483 25.9356 79.5183 25.386 81.2575 24.2866L81.5037 24.1143C81.6185 24.0487 81.7006 24.0159 81.7498 24.0159C81.8154 24.0159 81.881 24.0651 81.9467 24.1636C82.0123 24.262 82.0451 24.3687 82.0451 24.4835C82.0451 24.5984 81.9385 24.7132 81.7252 24.8281C80.7735 25.7305 78.9933 26.5919 76.3844 27.4123C73.792 28.2327 71.4457 28.6429 69.3455 28.6429C66.4741 28.6429 65.0384 27.8061 65.0384 26.1325C65.0384 25.8864 65.2845 25.5336 65.7768 25.0742C66.5315 24.3851 66.9909 24.0405 67.155 24.0405C67.3191 24.0405 67.7375 24.2456 68.4102 24.6558C69.0829 25.066 69.9279 25.4762 70.9452 25.8864C71.9625 26.2966 72.9716 26.5017 73.9725 26.5017C74.9733 26.5017 75.7363 26.1899 76.2614 25.5664C76.8028 24.9429 77.0735 24.303 77.0735 23.6467C77.0735 22.9904 76.7946 22.3997 76.2367 21.8747C75.6789 21.3496 74.998 20.8902 74.194 20.4964C73.4064 20.0862 72.6106 19.6678 71.8066 19.2412C71.0027 18.8146 70.3217 18.2978 69.7639 17.6907C69.206 17.0836 68.9271 16.4191 68.9271 15.6971C68.9271 14.5322 69.5752 13.3098 70.8714 12.03C72.1676 10.7502 73.6525 9.71648 75.3261 8.92891C76.9997 8.14133 78.4272 7.74754 79.6086 7.74754C81.0853 7.74754 81.8236 8.23978 81.8236 9.22425C81.8236 9.81493 81.5529 10.3728 81.0114 10.8978C80.4864 11.4065 80.0434 11.6608 79.6824 11.6608Z" fill="black"/>
</svg>
